<svg xmlns="http://www.w3.org/2000/svg">
    <symbol id="icnArrowSlim" viewBox="0 0 375 374.999991">
        <g>
            <path d="M 252.4375 187.351562 C 237.75 204.757812 153.980469 304.300781 115.902344 342.378906 C 114.273438 344.007812 114.273438 346.730469 115.902344 348.359375 C 116.449219 348.90625 117.535156 349.449219 118.625 349.449219 C 119.710938 349.449219 120.800781 348.90625 121.34375 348.359375 C 163.226562 306.476562 260.050781 191.703125 260.597656 190.074219 C 261.683594 188.441406 261.683594 186.265625 260.597656 184.632812 C 259.507812 183.546875 162.683594 68.773438 120.800781 26.890625 C 119.167969 25.257812 116.449219 25.257812 114.816406 26.890625 C 113.183594 28.519531 113.183594 31.242188 114.816406 32.871094 C 153.4375 70.40625 237.75 169.945312 252.4375 187.351562 Z M 252.4375 187.351562 "/>
        </g>
    </symbol>

    <symbol id="icnGroupSettings" viewBox="0 0 375 374.999991">
        <g>
            <path d="M 165.742188 38.300781 C 158.59375 38.300781 152.484375 43.351562 151.113281 50.363281 L 146.128906 75.9375 C 133.878906 80.566406 122.554688 87.035156 112.609375 95.191406 L 88.070312 86.746094 C 81.3125 84.417969 73.875 87.210938 70.292969 93.386719 L 47.792969 132.363281 C 44.226562 138.550781 45.523438 146.410156 50.910156 151.09375 L 70.582031 168.191406 C 69.5625 174.476562 68.894531 180.875 68.894531 187.449219 C 68.894531 194.019531 69.5625 200.417969 70.582031 206.703125 L 50.910156 223.800781 C 45.523438 228.484375 44.226562 236.34375 47.792969 242.53125 L 70.292969 281.507812 C 73.859375 287.699219 81.3125 290.492188 88.070312 288.179688 L 112.609375 279.730469 C 122.550781 287.886719 133.886719 294.332031 146.128906 298.957031 L 151.113281 324.535156 C 152.484375 331.542969 158.59375 336.59375 165.742188 336.59375 L 210.800781 336.59375 C 217.949219 336.59375 224.058594 331.542969 225.433594 324.535156 L 230.414062 298.957031 C 242.664062 294.328125 253.988281 287.863281 263.933594 279.703125 L 288.472656 288.152344 C 295.230469 290.476562 302.667969 287.699219 306.25 281.507812 L 328.75 242.503906 C 332.316406 236.316406 331.019531 228.484375 325.632812 223.800781 L 305.960938 206.703125 C 306.984375 200.417969 307.648438 194.019531 307.648438 187.449219 C 307.648438 180.875 306.984375 174.476562 305.960938 168.191406 L 325.632812 151.09375 C 331.019531 146.410156 332.316406 138.550781 328.75 132.363281 L 306.25 93.386719 C 302.683594 87.199219 295.230469 84.40625 288.472656 86.714844 L 263.933594 95.164062 C 253.992188 87.011719 242.65625 80.566406 230.414062 75.9375 L 225.433594 50.363281 C 224.058594 43.351562 217.949219 38.300781 210.800781 38.300781 Z M 188.273438 127.789062 C 221.234375 127.789062 247.960938 154.5 247.960938 187.449219 C 247.960938 220.394531 221.234375 247.105469 188.273438 247.105469 C 155.308594 247.105469 128.582031 220.394531 128.582031 187.449219 C 128.582031 154.5 155.308594 127.789062 188.273438 127.789062 Z M 188.273438 127.789062 "/>
        </g>
    </symbol>

    <symbol id="icnTeacher" viewBox="0 0 375 374.999991">
        <g>
            <path d="M 213.664062 297.070312 L 75.398438 297.070312 L 80.738281 247.164062 L 69.660156 276.042969 C 67.480469 281.714844 60.820312 287.097656 54.910156 288.015625 L 51.351562 288.589844 C 45.382812 289.507812 37.460938 286.46875 33.671875 281.828125 L 31.433594 279.019531 C 27.648438 274.378906 26.269531 266.015625 28.449219 260.339844 L 65.699219 163.566406 C 70.0625 152.222656 83.550781 143.054688 95.601562 143.054688 L 193.402344 143.054688 C 205.570312 143.054688 219.003906 152.335938 223.363281 163.625 L 238.289062 202.414062 L 267.789062 164.65625 C 271.578125 159.84375 279.441406 156.632812 285.523438 157.4375 L 294.535156 158.753906 L 338.5 108.101562 C 340.507812 105.8125 344.007812 105.640625 346.246094 107.585938 C 348.542969 109.535156 348.832031 113.03125 346.820312 115.324219 L 302.570312 166.257812 L 305.265625 172.847656 C 307.5625 178.464844 306.359375 186.886719 302.628906 191.640625 L 249.59375 258.964844 C 236.851562 275.125 219.691406 272.945312 211.367188 254.152344 L 208.269531 247.164062 Z M 214.8125 308.070312 L 238.113281 308.070312 C 241.214844 308.070312 243.683594 310.417969 243.683594 313.511719 L 243.683594 324.628906 C 243.683594 327.609375 241.15625 330.074219 238.171875 330.074219 L 50.835938 330.074219 C 47.792969 330.074219 45.324219 327.722656 45.324219 324.628906 L 45.324219 313.511719 C 45.324219 310.535156 47.792969 308.070312 50.890625 308.070312 Z M 144.503906 126.554688 C 120.167969 126.554688 100.425781 106.84375 100.425781 82.546875 C 100.425781 58.253906 120.167969 38.542969 144.503906 38.542969 C 168.839844 38.542969 188.582031 58.253906 188.582031 82.546875 C 188.582031 106.84375 168.839844 126.554688 144.503906 126.554688 Z M 144.503906 126.554688 "/>
        </g>
    </symbol>

    <symbol id="icnTimeClock" viewBox="0 0 375 374.999991">
        <defs>
            <clipPath id="clip-0">
                <path d="M 30.601562 30.601562 L 344.101562 30.601562 L 344.101562 344.101562 L 30.601562 344.101562 Z M 30.601562 30.601562 " clip-rule="nonzero"/>
            </clipPath>
        </defs>
        <g clip-path="url(#clip-0)">
            <path d="M 187.273438 30.601562 C 100.671875 30.601562 30.601562 100.75 30.601562 187.351562 C 30.601562 273.957031 100.671875 344.101562 187.273438 344.101562 C 273.878906 344.101562 344.101562 273.957031 344.101562 187.351562 C 344.101562 100.75 273.878906 30.601562 187.273438 30.601562 Z M 187.351562 312.753906 C 118.070312 312.753906 61.953125 256.636719 61.953125 187.351562 C 61.953125 118.070312 118.070312 61.953125 187.351562 61.953125 C 256.636719 61.953125 312.753906 118.070312 312.753906 187.351562 C 312.753906 256.636719 256.636719 312.753906 187.351562 312.753906 Z M 187.351562 312.753906 "/>
        </g>
        <path d="M 195.191406 108.976562 L 171.679688 108.976562 L 171.679688 203.027344 L 253.894531 252.40625 L 265.726562 233.125 L 195.191406 191.273438 Z M 195.191406 108.976562 "/>
    </symbol>

    <symbol id="icnClassroom" viewBox="0 0 375 374.999991">
        <g>
            <path d="M 198.820312 17.246094 L 90.023438 51.296875 C 87.316406 52.652344 85.351562 55.390625 85.351562 58.105469 L 85.351562 323.695312 C 85.351562 327.101562 87.476562 329.8125 90.875 330.503906 L 199.671875 357.746094 L 200.945312 357.746094 C 202.300781 357.746094 203.628906 357.160156 204.984375 356.46875 C 206.339844 355.113281 207.746094 352.984375 207.746094 350.9375 L 207.746094 24.054688 C 207.746094 22.007812 206.339844 19.878906 204.984375 18.523438 C 202.9375 17.164062 200.867188 17.246094 198.820312 17.246094 Z M 221.347656 44.484375 L 221.347656 58.105469 L 275.746094 58.105469 L 275.746094 316.886719 L 221.347656 316.886719 L 221.347656 330.503906 L 282.546875 330.503906 C 286.289062 330.503906 289.34375 327.445312 289.34375 323.695312 L 289.34375 51.296875 C 289.34375 47.542969 286.289062 44.484375 282.546875 44.484375 Z M 180.546875 180.6875 C 184.636719 180.6875 187.347656 185.449219 187.347656 190.902344 C 187.347656 196.355469 184.636719 201.117188 180.546875 201.117188 C 176.457031 201.117188 173.746094 196.355469 173.746094 190.902344 C 173.746094 185.449219 176.457031 180.6875 180.546875 180.6875 Z M 180.546875 180.6875 "/>
        </g>
    </symbol>

    <symbol id="icnSubgroup" viewBox="0 0 375 374.999991">
        <defs>
            <clipPath id="clip-0">
                <path d="M 200 210 L 352.574219 210 L 352.574219 300 L 200 300 Z M 200 210 " clip-rule="nonzero"/>
            </clipPath>
            <clipPath id="clip-1">
                <path d="M 201 75.144531 L 307 75.144531 L 307 181 L 201 181 Z M 201 75.144531 " clip-rule="nonzero"/>
            </clipPath>
            <clipPath id="clip-2">
                <path d="M 22.574219 75.144531 L 217 75.144531 L 217 300 L 22.574219 300 Z M 22.574219 75.144531 " clip-rule="nonzero"/>
            </clipPath>
        </defs>
        <g clip-path="url(#clip-0)">
            <path d="M 254.023438 210.0625 C 231.625 210.0625 213.707031 216.039062 200.265625 223.511719 C 221.171875 241.445312 230.132812 262.367188 231.625 263.863281 L 233.117188 266.851562 L 233.117188 299.730469 L 352.574219 299.730469 L 352.574219 269.839844 C 351.082031 269.839844 327.191406 210.0625 254.023438 210.0625 Z M 254.023438 210.0625 "/>
        </g>
        <g clip-path="url(#clip-1)">
            <path d="M 306.285156 127.867188 C 306.285156 129.578125 306.203125 131.289062 306.035156 132.992188 C 305.867188 134.699219 305.613281 136.390625 305.28125 138.070312 C 304.945312 139.75 304.53125 141.410156 304.035156 143.050781 C 303.539062 144.6875 302.960938 146.300781 302.308594 147.882812 C 301.652344 149.464844 300.921875 151.011719 300.113281 152.523438 C 299.308594 154.035156 298.429688 155.5 297.476562 156.925781 C 296.527344 158.351562 295.507812 159.726562 294.421875 161.050781 C 293.335938 162.375 292.1875 163.640625 290.976562 164.851562 C 289.769531 166.0625 288.5 167.210938 287.179688 168.300781 C 285.855469 169.386719 284.480469 170.40625 283.058594 171.355469 C 281.636719 172.308594 280.167969 173.1875 278.660156 173.996094 C 277.148438 174.804688 275.605469 175.535156 274.023438 176.191406 C 272.441406 176.847656 270.832031 177.421875 269.195312 177.921875 C 267.554688 178.417969 265.898438 178.832031 264.21875 179.167969 C 262.539062 179.5 260.847656 179.753906 259.144531 179.921875 C 257.441406 180.089844 255.734375 180.171875 254.023438 180.171875 C 252.3125 180.171875 250.605469 180.089844 248.898438 179.921875 C 247.195312 179.753906 245.503906 179.5 243.828125 179.167969 C 242.148438 178.832031 240.488281 178.417969 238.851562 177.921875 C 237.214844 177.421875 235.605469 176.847656 234.023438 176.191406 C 232.441406 175.535156 230.894531 174.804688 229.386719 173.996094 C 227.878906 173.1875 226.410156 172.308594 224.988281 171.355469 C 223.5625 170.40625 222.191406 169.386719 220.867188 168.300781 C 219.542969 167.210938 218.277344 166.0625 217.066406 164.851562 C 215.855469 163.640625 214.710938 162.375 213.625 161.050781 C 212.539062 159.726562 211.519531 158.351562 210.566406 156.925781 C 209.617188 155.5 208.738281 154.035156 207.929688 152.523438 C 207.125 151.011719 206.394531 149.464844 205.738281 147.882812 C 205.082031 146.300781 204.507812 144.6875 204.011719 143.050781 C 203.515625 141.410156 203.097656 139.75 202.765625 138.070312 C 202.429688 136.390625 202.179688 134.699219 202.011719 132.992188 C 201.84375 131.289062 201.761719 129.578125 201.761719 127.867188 C 201.761719 126.152344 201.84375 124.445312 202.011719 122.738281 C 202.179688 121.035156 202.429688 119.339844 202.765625 117.660156 C 203.097656 115.980469 203.515625 114.320312 204.011719 112.683594 C 204.507812 111.042969 205.082031 109.433594 205.738281 107.847656 C 206.394531 106.265625 207.125 104.71875 207.929688 103.207031 C 208.738281 101.699219 209.617188 100.230469 210.566406 98.804688 C 211.519531 97.382812 212.539062 96.007812 213.625 94.683594 C 214.710938 93.359375 215.855469 92.089844 217.066406 90.878906 C 218.277344 89.667969 219.542969 88.519531 220.867188 87.433594 C 222.191406 86.347656 223.5625 85.328125 224.988281 84.375 C 226.410156 83.421875 227.878906 82.542969 229.386719 81.734375 C 230.894531 80.929688 232.441406 80.195312 234.023438 79.542969 C 235.605469 78.886719 237.214844 78.308594 238.851562 77.8125 C 240.488281 77.316406 242.148438 76.898438 243.828125 76.566406 C 245.503906 76.230469 247.195312 75.980469 248.898438 75.8125 C 250.605469 75.644531 252.3125 75.558594 254.023438 75.558594 C 255.734375 75.558594 257.441406 75.644531 259.144531 75.8125 C 260.847656 75.980469 262.539062 76.230469 264.21875 76.566406 C 265.898438 76.898438 267.554688 77.316406 269.195312 77.8125 C 270.832031 78.308594 272.441406 78.886719 274.023438 79.542969 C 275.605469 80.195312 277.148438 80.929688 278.660156 81.734375 C 280.167969 82.542969 281.636719 83.421875 283.058594 84.375 C 284.480469 85.328125 285.855469 86.347656 287.179688 87.433594 C 288.5 88.519531 289.769531 89.667969 290.976562 90.878906 C 292.1875 92.089844 293.335938 93.359375 294.421875 94.683594 C 295.507812 96.007812 296.527344 97.382812 297.476562 98.804688 C 298.429688 100.230469 299.308594 101.699219 300.113281 103.207031 C 300.921875 104.71875 301.652344 106.265625 302.308594 107.847656 C 302.960938 109.433594 303.539062 111.042969 304.035156 112.683594 C 304.53125 114.320312 304.945312 115.980469 305.28125 117.660156 C 305.613281 119.339844 305.867188 121.035156 306.035156 122.738281 C 306.203125 124.445312 306.285156 126.152344 306.285156 127.867188 Z M 306.285156 127.867188 "/>
        </g>
        <g clip-path="url(#clip-2)">
            <path d="M 67.371094 127.867188 C 67.371094 99.472656 91.261719 75.558594 119.632812 75.558594 C 148.003906 75.558594 171.894531 99.472656 171.894531 127.867188 C 171.894531 156.261719 148.003906 180.171875 119.632812 180.171875 C 91.261719 180.171875 67.371094 156.261719 67.371094 127.867188 Z M 119.632812 210.0625 C 46.464844 210.0625 22.574219 269.839844 22.574219 269.839844 L 22.574219 299.730469 L 216.691406 299.730469 L 216.691406 269.839844 C 216.691406 269.839844 192.800781 210.0625 119.632812 210.0625 Z M 119.632812 210.0625 "/>
        </g>
    </symbol>
</svg>