<?xml version="1.0" encoding="UTF-8"?><svg xmlns="http://www.w3.org/2000/svg" xmlns:xlink="http://www.w3.org/1999/xlink" contentScriptType="text/ecmascript" width="375" zoomAndPan="magnify" contentStyleType="text/css" viewBox="0 0 375 374.999991" height="374.999991" preserveAspectRatio="xMidYMid meet" version="1.0"><defs><clipPath id="clip-0"><path d="M 41.546875 41.546875 L 333.296875 41.546875 L 333.296875 333.296875 L 41.546875 333.296875 Z M 41.546875 41.546875 " clip-rule="nonzero"/></clipPath></defs><g clip-path="url(#clip-0)"><path fill="rgb(12.548828%, 11.759949%, 13.328552%)" d="M 126.234375 41.546875 C 79.59375 41.546875 41.546875 79.59375 41.546875 126.234375 L 41.546875 248.703125 C 41.546875 295.25 79.59375 333.296875 126.234375 333.296875 L 248.703125 333.296875 C 295.25 333.296875 333.296875 295.25 333.296875 248.613281 L 333.296875 126.234375 C 333.296875 79.59375 295.25 41.546875 248.613281 41.546875 Z M 126.234375 63.992188 L 248.613281 63.992188 C 283.152344 63.992188 310.855469 91.691406 310.855469 126.234375 L 310.855469 248.613281 C 310.855469 283.152344 283.152344 310.855469 248.703125 310.855469 L 126.234375 310.855469 C 91.691406 310.855469 63.992188 283.152344 63.992188 248.703125 L 63.992188 126.234375 C 63.992188 91.691406 91.691406 63.992188 126.234375 63.992188 Z M 277.191406 86.433594 C 270.96875 86.433594 265.972656 91.429688 265.972656 97.652344 C 265.972656 103.878906 270.96875 108.875 277.191406 108.875 C 283.417969 108.875 288.414062 103.878906 288.414062 97.652344 C 288.414062 91.429688 283.417969 86.433594 277.191406 86.433594 Z M 187.421875 108.875 C 144.203125 108.875 108.875 144.203125 108.875 187.421875 C 108.875 230.640625 144.203125 265.972656 187.421875 265.972656 C 230.640625 265.972656 265.972656 230.640625 265.972656 187.421875 C 265.972656 144.203125 230.640625 108.875 187.421875 108.875 Z M 187.421875 131.316406 C 218.542969 131.316406 243.527344 156.300781 243.527344 187.421875 C 243.527344 218.542969 218.542969 243.527344 187.421875 243.527344 C 156.300781 243.527344 131.316406 218.542969 131.316406 187.421875 C 131.316406 156.300781 156.300781 131.316406 187.421875 131.316406 Z M 187.421875 131.316406 " fill-opacity="1" fill-rule="nonzero"/></g></svg>