<?xml version="1.0" encoding="UTF-8"?><svg xmlns="http://www.w3.org/2000/svg" xmlns:xlink="http://www.w3.org/1999/xlink" contentScriptType="text/ecmascript" width="375" zoomAndPan="magnify" contentStyleType="text/css" viewBox="0 0 375 374.999991" height="374.999991" preserveAspectRatio="xMidYMid meet" version="1.0"><defs><clipPath id="clip-0"><path d="M 23 36.757812 L 352.230469 36.757812 L 352.230469 338.257812 L 23 338.257812 Z M 23 36.757812 " clip-rule="nonzero"/></clipPath></defs><g clip-path="url(#clip-0)"><path fill="rgb(12.548828%, 11.759949%, 13.328552%)" d="M 326.84375 36.542969 C 322.386719 36.742188 318.234375 38.039062 314.578125 39.515625 C 311.152344 40.894531 298.066406 46.5 277.457031 55.335938 C 256.832031 64.175781 229.515625 75.894531 200.378906 88.417969 C 142.109375 113.464844 76.59375 141.65625 43.039062 156.085938 C 41.777344 156.628906 37.371094 158.03125 32.699219 161.679688 C 28.027344 165.324219 23.058594 172.878906 23.058594 181.300781 C 23.058594 188.085938 26.296875 194.832031 30.371094 198.859375 C 34.445312 202.882812 38.753906 204.875 42.449219 206.378906 C 55.847656 211.84375 97.402344 228.839844 105.25 232.046875 C 108.011719 240.503906 123.054688 286.492188 126.542969 297.761719 C 128.84375 305.199219 131.03125 309.855469 133.882812 313.554688 C 135.304688 315.402344 136.960938 317.023438 138.96875 318.289062 C 139.773438 318.796875 140.652344 319.1875 141.539062 319.550781 L 141.59375 319.574219 C 141.800781 319.65625 141.976562 319.796875 142.183594 319.871094 C 142.574219 320.007812 142.835938 320.023438 143.363281 320.136719 C 145.449219 320.8125 147.558594 321.234375 149.441406 321.234375 C 157.464844 321.234375 162.378906 316.820312 162.378906 316.820312 L 162.671875 316.605469 L 203.941406 280.925781 L 253.996094 328.25 C 254.703125 329.246094 261.273438 338.257812 275.769531 338.257812 C 284.378906 338.257812 291.207031 333.941406 295.589844 329.34375 C 299.972656 324.75 302.703125 319.917969 303.863281 313.847656 L 303.863281 313.820312 C 304.949219 308.082031 351.082031 71.394531 351.082031 71.394531 L 351 71.714844 C 352.351562 65.554688 352.707031 59.820312 351.214844 54.15625 C 349.726562 48.496094 345.800781 43.074219 340.929688 40.160156 C 336.0625 37.242188 331.300781 36.347656 326.84375 36.542969 Z M 324.273438 65.183594 C 324.207031 65.585938 324.320312 65.382812 324.21875 65.855469 L 324.164062 66.175781 C 324.164062 66.175781 278.605469 299.835938 276.921875 308.734375 C 277.046875 308.0625 276.484375 309.398438 275.90625 310.207031 C 275.089844 309.644531 273.414062 308.921875 273.414062 308.921875 L 273.144531 308.628906 L 204.773438 243.988281 L 156.429688 285.742188 L 170.8125 228.195312 C 170.8125 228.195312 260.714844 135.1875 266.128906 129.773438 C 270.488281 125.441406 271.40625 123.933594 271.40625 122.4375 C 271.40625 120.4375 270.363281 118.984375 268.03125 118.984375 C 265.933594 118.984375 263.113281 121.023438 261.601562 121.984375 C 241.953125 134.503906 155.679688 184.757812 117.007812 207.234375 C 110.863281 204.722656 68.167969 187.253906 53.695312 181.351562 C 53.804688 181.304688 53.769531 181.320312 53.882812 181.273438 C 87.449219 166.839844 152.9375 138.648438 211.199219 113.605469 C 240.332031 101.085938 267.667969 89.355469 288.277344 80.523438 C 308.570312 71.824219 322.671875 65.839844 324.273438 65.183594 Z M 324.273438 65.183594 " fill-opacity="1" fill-rule="nonzero"/></g></svg>