<?xml version="1.0" encoding="UTF-8"?><svg xmlns="http://www.w3.org/2000/svg" xmlns:xlink="http://www.w3.org/1999/xlink" contentScriptType="text/ecmascript" width="375" zoomAndPan="magnify" contentStyleType="text/css" viewBox="0 0 375 374.999991" height="374.999991" preserveAspectRatio="xMidYMid meet" version="1.0"><defs><clipPath id="clip-0"><path d="M 31.851562 31.851562 L 342.351562 31.851562 L 342.351562 342.351562 L 31.851562 342.351562 Z M 31.851562 31.851562 " clip-rule="nonzero"/></clipPath></defs><g clip-path="url(#clip-0)"><path fill="rgb(12.548828%, 11.759949%, 13.328552%)" d="M 277.722656 31.851562 L 96.476562 31.851562 C 60.839844 31.851562 31.851562 60.832031 31.851562 96.460938 L 31.851562 277.742188 C 31.851562 313.367188 60.839844 342.351562 96.476562 342.351562 L 277.714844 342.351562 C 313.355469 342.351562 342.351562 313.367188 342.351562 277.742188 L 342.351562 96.460938 C 342.351562 60.832031 313.355469 31.851562 277.722656 31.851562 Z M 283.144531 248.710938 L 254.9375 249.09375 C 254.9375 249.09375 248.859375 250.261719 240.890625 244.898438 C 230.339844 237.816406 220.40625 219.410156 212.640625 221.789062 C 206.128906 223.78125 204.75 231.289062 204.75 238.996094 C 204.75 241.753906 202.773438 242.996094 197.535156 242.996094 C 192.296875 242.996094 187.230469 242.996094 184.910156 242.996094 C 167.867188 242.996094 150.964844 242.21875 132.515625 222.484375 C 106.421875 194.578125 82.132812 142.507812 82.132812 142.507812 C 82.132812 142.507812 80.777344 139.675781 82.25 137.953125 C 83.921875 136.023438 88.453125 136.265625 88.453125 136.265625 L 118.628906 136.253906 C 118.628906 136.253906 121.46875 136.804688 123.511719 138.269531 C 125.191406 139.476562 126.128906 141.78125 126.128906 141.78125 C 126.128906 141.78125 131.011719 153.882812 137.46875 164.8125 C 150.082031 186.144531 155.945312 190.820312 160.222656 188.527344 C 166.472656 185.199219 164.59375 158.386719 164.59375 158.386719 C 164.59375 158.386719 164.714844 148.648438 161.453125 144.3125 C 158.9375 140.953125 154.1875 139.972656 152.089844 139.699219 C 150.386719 139.476562 153.167969 135.621094 156.785156 133.878906 C 162.21875 131.277344 171.804688 131.136719 183.144531 131.246094 C 191.96875 131.335938 194.515625 131.875 197.960938 132.6875 C 208.371094 135.148438 204.828125 144.648438 204.828125 167.433594 C 204.828125 174.730469 203.480469 184.996094 208.859375 188.398438 C 211.175781 189.863281 216.832031 188.617188 230.96875 165.105469 C 237.6875 153.957031 242.703125 140.855469 242.703125 140.855469 C 242.703125 140.855469 243.808594 138.816406 245.519531 137.816406 C 247.269531 136.792969 247.207031 136.8125 249.609375 136.8125 C 252.019531 136.8125 276.097656 136.621094 281.375 136.621094 C 286.652344 136.621094 291.601562 136.558594 292.460938 139.722656 C 293.683594 144.277344 288.894531 154.484375 275.914062 171.421875 C 254.601562 199.214844 252.238281 196.621094 269.921875 212.691406 C 286.820312 228.050781 290.324219 235.519531 290.894531 236.453125 C 297.90625 247.816406 283.144531 248.710938 283.144531 248.710938 Z M 283.144531 248.710938 " fill-opacity="1" fill-rule="nonzero"/></g></svg>